<svg width="160" height="58" viewBox="0 0 160 58" fill="none" xmlns="http://www.w3.org/2000/svg">
<rect x="2.5" y="2.5" width="155" height="53" rx="26.5" stroke="black" stroke-opacity="0.1" stroke-width="5"/>
<rect x="5.7" y="5.7" width="148.6" height="46.6" rx="23.3" fill="url(#paint0_linear_1039_25)" stroke="url(#paint1_linear_1039_25)" stroke-width="1.4"/>
<path d="M5 29C5 15.7452 15.7452 5 29 5H76C78.2091 5 80 6.79086 80 9V49C80 51.2091 78.2091 53 76 53H29C15.7452 53 5 42.2548 5 29V29Z" fill="black" fill-opacity="0.3"/>
<path d="M32.2112 27.6332L31.4099 28.4345L30.6086 27.6332L31.4099 26.8319L32.2112 27.6332ZM51.4778 36.6999C51.4778 37.0004 51.3584 37.2887 51.1459 37.5012C50.9334 37.7138 50.6451 37.8332 50.3445 37.8332C50.0439 37.8332 49.7557 37.7138 49.5431 37.5012C49.3306 37.2887 49.2112 37.0004 49.2112 36.6999H51.4778ZM37.0766 34.1011L31.4099 28.4345L33.0124 26.8319L38.6791 32.4986L37.0766 34.1011ZM31.4099 26.8319L37.0766 21.1653L38.6791 22.7678L33.0124 28.4345L31.4099 26.8319ZM32.2112 26.4999H43.5445V28.7665H32.2112V26.4999ZM51.4778 34.4332V36.6999H49.2112V34.4332H51.4778ZM43.5445 26.4999C45.6486 26.4999 47.6664 27.3357 49.1542 28.8235C50.642 30.3113 51.4778 32.3291 51.4778 34.4332H49.2112C49.2112 32.9303 48.6142 31.489 47.5514 30.4262C46.4887 29.3635 45.0474 28.7665 43.5445 28.7665V26.4999Z" fill="white"/>
<path d="M132.42 27.0849L133.422 28.0865L134.423 27.0849L133.422 26.0833L132.42 27.0849ZM108.337 38.4183C108.337 38.794 108.486 39.1543 108.752 39.42C109.017 39.6857 109.378 39.8349 109.753 39.8349C110.129 39.8349 110.489 39.6857 110.755 39.42C111.021 39.1543 111.17 38.794 111.17 38.4183H108.337ZM126.338 35.1698L133.422 28.0865L131.418 26.0833L124.335 33.1667L126.338 35.1698ZM133.422 26.0833L126.338 19L124.335 21.0032L131.418 28.0865L133.422 26.0833ZM132.42 25.6683H118.253V28.5016H132.42V25.6683ZM108.337 35.5849V38.4183H111.17V35.5849H108.337ZM118.253 25.6683C115.623 25.6683 113.101 26.713 111.241 28.5728C109.381 30.4325 108.337 32.9549 108.337 35.5849H111.17C111.17 33.7063 111.916 31.9046 113.245 30.5762C114.573 29.2479 116.375 28.5016 118.253 28.5016V25.6683Z" fill="white"/>
<defs>
<linearGradient id="paint0_linear_1039_25" x1="80" y1="5" x2="80" y2="53" gradientUnits="userSpaceOnUse">
<stop stop-color="#63BB9C"/>
<stop offset="1" stop-color="#338065"/>
</linearGradient>
<linearGradient id="paint1_linear_1039_25" x1="80" y1="5" x2="80" y2="53" gradientUnits="userSpaceOnUse">
<stop stop-color="#77D4B4"/>
<stop offset="1" stop-color="#2A6752"/>
</linearGradient>
</defs>
</svg>
