<svg width="160" height="58" viewBox="0 0 160 58" fill="none" xmlns="http://www.w3.org/2000/svg">
<rect x="2.5" y="2.5" width="155" height="53" rx="26.5" stroke="black" stroke-opacity="0.1" stroke-width="5"/>
<rect x="5.7" y="5.7" width="148.6" height="46.6" rx="23.3" fill="url(#paint0_linear_1039_15)" stroke="url(#paint1_linear_1039_15)" stroke-width="1.4"/>
<path d="M30.0032 27.1667L29.0016 28.1683L28 27.1667L29.0016 26.1651L30.0032 27.1667ZM54.0865 38.5C54.0865 38.8757 53.9372 39.2361 53.6716 39.5017C53.4059 39.7674 53.0456 39.9167 52.6698 39.9167C52.2941 39.9167 51.9338 39.7674 51.6681 39.5017C51.4024 39.2361 51.2532 38.8757 51.2532 38.5H54.0865ZM36.0849 35.2516L29.0016 28.1683L31.0047 26.1651L38.0881 33.2484L36.0849 35.2516ZM29.0016 26.1651L36.0849 19.0818L38.0881 21.0849L31.0047 28.1683L29.0016 26.1651ZM30.0032 25.75H44.1698V28.5833H30.0032V25.75ZM54.0865 35.6667V38.5H51.2532V35.6667H54.0865ZM44.1698 25.75C46.7999 25.75 49.3222 26.7948 51.182 28.6545C53.0417 30.5143 54.0865 33.0366 54.0865 35.6667H51.2532C51.2532 33.7881 50.5069 31.9864 49.1785 30.658C47.8501 29.3296 46.0485 28.5833 44.1698 28.5833V25.75Z" fill="white"/>
<path d="M132.42 27.0849L133.422 28.0865L134.423 27.0849L133.422 26.0833L132.42 27.0849ZM108.337 38.4183C108.337 38.794 108.486 39.1543 108.752 39.42C109.017 39.6857 109.378 39.8349 109.753 39.8349C110.129 39.8349 110.489 39.6857 110.755 39.42C111.021 39.1543 111.17 38.794 111.17 38.4183H108.337ZM126.338 35.1698L133.422 28.0865L131.418 26.0833L124.335 33.1667L126.338 35.1698ZM133.422 26.0833L126.338 19L124.335 21.0032L131.418 28.0865L133.422 26.0833ZM132.42 25.6683H118.253V28.5016H132.42V25.6683ZM108.337 35.5849V38.4183H111.17V35.5849H108.337ZM118.253 25.6683C115.623 25.6683 113.101 26.713 111.241 28.5728C109.381 30.4325 108.337 32.9549 108.337 35.5849H111.17C111.17 33.7063 111.916 31.9046 113.245 30.5762C114.573 29.2479 116.375 28.5016 118.253 28.5016V25.6683Z" fill="white"/>
<path d="M80 10C80 39.6 80 47 80 47" stroke="#346151" stroke-opacity="0.6" stroke-width="2" stroke-linecap="round"/>
<defs>
<linearGradient id="paint0_linear_1039_15" x1="80" y1="5" x2="80" y2="53" gradientUnits="userSpaceOnUse">
<stop stop-color="#63BB9C"/>
<stop offset="1" stop-color="#338065"/>
</linearGradient>
<linearGradient id="paint1_linear_1039_15" x1="80" y1="5" x2="80" y2="53" gradientUnits="userSpaceOnUse">
<stop stop-color="#77D4B4"/>
<stop offset="1" stop-color="#2A6752"/>
</linearGradient>
</defs>
</svg>
